<?xml version="1.0" standalone="no"?>
<!DOCTYPE svg PUBLIC "-//W3C//DTD SVG 20010904//EN"
 "http://www.w3.org/TR/2001/REC-SVG-20010904/DTD/svg10.dtd">
<svg version="1.0" xmlns="http://www.w3.org/2000/svg"
 width="1280.000000pt" height="640.000000pt" viewBox="0 0 1280.000000 640.000000"
 preserveAspectRatio="xMidYMid meet">
<metadata>
Created by potrace 1.15, written by Peter Selinger 2001-2017
</metadata>
<g transform="translate(0.000000,640.000000) scale(0.100000,-0.100000)"
fill="#000000" stroke="none">
<path d="M4635 5231 c-12 -20 -65 -63 -137 -113 -129 -87 -170 -129 -193 -197
-17 -51 -20 -137 -5 -146 16 -10 166 75 225 127 33 30 63 69 78 101 32 66 60
182 55 227 l-3 35 -20 -34z"/>
<path d="M8140 5226 c0 -114 59 -255 135 -324 59 -52 209 -137 225 -127 15 9
12 95 -5 146 -24 69 -64 110 -195 199 -66 44 -120 84 -120 88 0 4 -9 18 -20
32 l-20 25 0 -39z"/>
<path d="M3880 5190 c0 -7 9 -23 19 -37 22 -27 37 -76 70 -225 24 -104 53
-156 113 -201 35 -27 114 -54 125 -44 3 4 -1 55 -11 113 -22 144 -53 210 -132
282 -65 60 -184 132 -184 112z"/>
<path d="M8852 5164 c-93 -53 -174 -132 -205 -202 -27 -59 -66 -266 -54 -279
11 -10 90 17 125 44 60 45 89 97 113 201 33 150 48 198 70 226 34 44 17 47
-49 10z"/>
<path d="M4645 4789 c-16 -5 -82 -38 -145 -74 -63 -36 -131 -68 -150 -71 -84
-14 -62 -31 73 -60 169 -35 251 -13 419 114 26 19 44 40 41 45 -3 5 -29 20
-57 33 -54 25 -124 30 -181 13z"/>
<path d="M7974 4776 c-28 -13 -54 -28 -57 -33 -12 -20 177 -145 248 -165 72
-20 228 -2 317 36 36 15 30 20 -32 30 -19 3 -87 35 -150 71 -63 36 -131 70
-150 75 -58 17 -121 11 -176 -14z"/>
<path d="M4207 4586 c-20 -47 -48 -133 -63 -193 -24 -95 -28 -126 -27 -253 1
-171 18 -263 72 -400 85 -212 182 -341 485 -649 147 -148 222 -231 206 -226
-14 4 -115 9 -225 11 l-201 3 -143 76 c-165 87 -325 178 -461 260 -116 70
-118 71 -105 57 18 -19 286 -181 481 -290 106 -59 190 -110 188 -113 -1 -3
-29 -11 -61 -18 -32 -7 -198 -60 -369 -117 -172 -57 -352 -115 -400 -129 -49
-14 -71 -23 -49 -19 62 8 261 54 346 78 l77 22 -127 -125 c-185 -182 -295
-361 -341 -552 -55 -230 0 -421 169 -590 182 -182 437 -280 731 -282 156 -1
252 19 376 78 153 74 255 201 289 360 17 80 21 249 5 225 -5 -8 -10 -42 -10
-75 0 -67 -32 -167 -76 -242 -41 -72 -159 -184 -239 -229 -121 -67 -208 -88
-370 -88 -133 0 -145 1 -235 32 -368 127 -580 394 -580 731 0 186 88 369 260
542 52 53 128 118 168 144 72 46 181 99 188 92 3 -2 -20 -55 -51 -118 -141
-293 -148 -418 -39 -691 36 -90 93 -198 105 -198 3 0 6 39 5 88 -1 86 0 89 73
270 89 222 101 265 101 364 0 95 -18 152 -77 241 -25 37 -43 71 -40 74 4 3 41
14 84 25 104 26 312 34 439 18 444 -55 959 -314 1466 -736 57 -48 104 -89 105
-93 1 -3 -66 -64 -148 -136 -83 -71 -183 -162 -223 -200 -76 -74 -153 -178
-136 -183 19 -7 103 41 178 102 42 34 147 130 234 215 l158 154 158 -154 c86
-85 191 -181 233 -215 76 -61 160 -109 179 -102 17 5 -59 108 -138 184 -41 40
-141 130 -223 201 -81 70 -147 131 -146 134 1 4 48 45 105 93 507 422 1022
681 1466 736 127 16 335 8 439 -18 43 -11 80 -22 84 -25 3 -3 -15 -37 -40 -74
-59 -89 -77 -146 -77 -241 0 -99 12 -142 101 -364 73 -181 74 -184 73 -270 -1
-49 2 -88 5 -88 12 0 69 108 105 198 109 273 102 398 -39 691 -31 63 -54 116
-51 118 7 7 116 -46 188 -92 97 -63 251 -220 313 -318 26 -44 63 -122 82 -175
28 -84 33 -110 33 -193 0 -336 -212 -604 -580 -731 -89 -30 -104 -32 -230 -33
-156 0 -244 20 -365 83 -81 42 -207 161 -249 235 -45 76 -76 175 -76 242 0 33
-5 67 -10 75 -16 24 -12 -145 5 -225 21 -99 58 -167 133 -247 53 -56 83 -78
156 -113 124 -59 220 -79 376 -78 294 2 548 100 731 282 71 70 94 101 127 171
54 115 66 172 59 289 -7 117 -26 190 -78 300 -67 143 -142 246 -280 382 l-127
125 77 -22 c85 -24 284 -70 346 -78 22 -4 0 5 -50 19 -49 14 -223 70 -385 124
-162 54 -326 107 -365 116 -38 10 -73 21 -77 24 -4 3 80 54 185 113 199 111
465 271 482 290 6 7 -1 5 -15 -4 -35 -21 -305 -179 -360 -210 -25 -14 -110
-60 -190 -103 l-144 -76 -201 -3 c-110 -2 -211 -7 -225 -11 -16 -5 59 78 206
226 303 308 400 437 485 649 54 137 71 229 72 400 1 127 -3 158 -27 253 -25
100 -94 283 -102 274 -2 -2 9 -41 25 -88 43 -129 56 -211 56 -364 0 -153 -14
-234 -67 -385 -84 -238 -293 -549 -535 -796 -135 -138 -211 -183 -508 -299
-194 -77 -283 -119 -416 -200 -194 -118 -387 -260 -601 -443 l-108 -92 -108
92 c-214 183 -407 325 -601 443 -131 80 -221 123 -411 198 -222 88 -271 110
-354 164 -173 111 -478 485 -614 750 -105 206 -147 366 -147 568 0 153 13 235
56 364 16 47 27 86 25 88 -2 2 -20 -34 -39 -81z"/>
<path d="M2743 4463 c3 -27 10 -68 15 -93 6 -25 12 -81 15 -125 9 -131 35
-165 175 -230 99 -47 103 -48 122 -30 28 25 40 77 39 165 0 110 -12 135 -94
197 -38 29 -75 57 -81 62 -6 5 -32 12 -57 16 -26 4 -52 13 -58 21 -6 8 -17 14
-25 14 -7 0 -15 9 -19 19 -3 11 -13 22 -21 25 -14 5 -15 -1 -11 -41z m222
-258 c21 -30 36 -57 34 -59 -2 -2 -23 25 -47 61 -24 36 -39 63 -34 59 5 -3 26
-30 47 -61z"/>
<path d="M10038 4496 c-10 -10 -18 -22 -18 -27 0 -5 -6 -9 -14 -9 -7 0 -19 -6
-25 -14 -6 -8 -32 -17 -58 -21 -25 -4 -51 -11 -57 -16 -6 -5 -42 -33 -81 -62
-83 -63 -94 -86 -94 -205 -1 -85 13 -136 43 -161 14 -12 29 -8 119 34 135 63
165 99 172 215 7 99 15 152 26 181 6 15 9 44 7 65 -3 36 -4 37 -20 20z m-190
-290 c-24 -35 -45 -63 -47 -60 -4 4 19 42 56 92 41 55 35 35 -9 -32z"/>
<path d="M3630 4401 c-19 -4 -47 -15 -61 -24 -14 -9 -61 -26 -105 -37 -163
-41 -202 -59 -244 -112 -11 -14 -37 -81 -57 -149 l-37 -122 23 -18 c12 -10 39
-21 59 -25 54 -11 189 12 249 42 46 22 56 33 83 87 17 34 34 69 39 77 24 42
33 71 35 116 1 27 7 58 13 69 6 11 8 26 6 32 -3 7 7 17 21 23 16 6 26 17 26
30 0 11 -3 19 -7 19 -5 -1 -24 -4 -43 -8z m-240 -297 c-25 -25 -54 -50 -65
-55 -11 -6 7 14 40 45 73 67 85 72 25 10z"/>
<path d="M9120 4389 c0 -12 10 -23 26 -29 14 -6 24 -16 21 -23 -2 -6 0 -21 6
-32 6 -11 12 -42 13 -69 2 -45 11 -74 35 -116 5 -8 22 -43 39 -77 27 -54 37
-65 83 -87 60 -30 195 -53 249 -42 20 4 47 15 59 25 l23 19 -32 103 c-18 57
-32 109 -32 115 0 18 -48 76 -82 98 -35 23 -67 34 -191 66 -44 11 -93 28 -110
38 -18 11 -49 22 -69 25 -33 5 -38 3 -38 -14z m370 -346 c0 -11 -40 21 -80 63
l-45 47 63 -53 c34 -29 62 -55 62 -57z"/>
<path d="M2696 3998 c-59 -9 -90 -27 -189 -107 -23 -19 -64 -45 -92 -58 -27
-13 -63 -34 -78 -46 -24 -21 -26 -25 -13 -36 11 -10 20 -10 36 -1 16 9 25 9
33 1 6 -6 21 -11 34 -11 12 0 27 -9 33 -20 6 -11 17 -20 24 -20 8 0 19 -6 25
-14 11 -13 55 -26 96 -28 11 0 42 -7 69 -15 26 -9 63 -13 82 -10 79 13 237
154 250 224 6 31 3 39 -16 55 -12 10 -34 21 -49 25 -14 3 -59 21 -100 40 -40
18 -76 32 -80 32 -3 -1 -32 -6 -65 -11z m59 -199 c-51 -10 -92 -10 -50 1 17 4
44 8 60 8 25 0 24 -2 -10 -9z"/>
<path d="M9965 3980 c-33 -16 -76 -34 -97 -40 -96 -27 -102 -82 -17 -174 60
-65 147 -125 193 -133 19 -3 56 1 82 10 27 8 58 15 69 15 41 2 85 15 96 28 6
8 17 14 25 14 7 0 18 9 24 20 6 11 21 20 33 20 13 0 28 5 34 11 8 8 17 8 31 0
14 -7 24 -7 36 2 15 11 14 15 -16 37 -18 14 -53 34 -78 46 -25 12 -64 36 -87
55 -91 73 -130 97 -173 103 -25 4 -56 9 -70 11 -14 2 -52 -9 -85 -25z m130
-180 c42 -11 1 -11 -50 -1 -34 7 -35 9 -10 9 17 0 44 -4 60 -8z"/>
<path d="M3100 3877 c0 -14 144 -201 198 -257 76 -78 55 -45 -72 110 -130 160
-126 156 -126 147z"/>
<path d="M9585 3744 c-132 -162 -156 -199 -83 -123 57 59 203 247 196 254 -2
2 -53 -57 -113 -131z"/>
<path d="M1664 3668 c3 -13 9 -43 13 -68 3 -25 11 -48 16 -51 20 -13 78 -218
78 -279 1 -14 6 -34 12 -45 5 -11 11 -30 13 -42 2 -24 27 -59 88 -126 34 -36
51 -46 130 -68 50 -15 125 -40 168 -55 75 -28 77 -28 97 -10 11 10 28 38 37
62 31 81 2 302 -55 411 -18 37 -33 48 -105 83 -46 23 -86 47 -89 54 -3 7 -20
16 -38 20 -17 3 -37 13 -43 22 -9 11 -33 16 -88 18 -42 1 -83 7 -90 13 -7 6
-26 13 -43 15 -21 2 -31 9 -33 23 -4 25 -29 45 -55 45 -15 0 -18 -5 -13 -22z
m480 -478 c50 -64 84 -126 39 -70 -15 19 -55 66 -88 103 -130 148 -142 165
-66 92 40 -38 92 -95 115 -125z"/>
<path d="M11088 3678 c-9 -7 -18 -22 -20 -33 -2 -14 -12 -21 -33 -23 -17 -2
-36 -9 -43 -15 -7 -6 -48 -12 -90 -13 -55 -2 -79 -7 -88 -18 -6 -9 -26 -19
-43 -22 -18 -4 -35 -13 -38 -20 -3 -7 -43 -31 -89 -54 -72 -35 -87 -46 -105
-83 -57 -109 -86 -330 -55 -411 9 -24 26 -52 37 -62 20 -18 22 -18 97 10 43
15 118 40 168 55 79 22 96 32 130 68 61 67 86 102 88 126 2 12 8 31 13 42 6
11 11 31 12 45 0 61 58 266 78 279 5 3 13 26 16 51 4 25 10 55 13 68 5 17 2
22 -13 22 -11 0 -26 -6 -35 -12z m-284 -342 c-22 -24 -66 -75 -99 -113 -33
-37 -73 -84 -88 -103 -38 -46 -16 -1 26 55 29 39 188 205 195 205 2 0 -13 -20
-34 -44z"/>
<path d="M3 3134 c3 -10 8 -30 12 -44 4 -14 16 -45 27 -69 19 -40 32 -85 59
-211 15 -73 95 -170 140 -170 10 0 62 -14 116 -32 103 -33 117 -32 140 13 18
34 16 165 -3 230 -26 87 -50 118 -118 151 -34 16 -80 40 -104 53 -24 14 -61
25 -85 26 -66 3 -126 21 -133 41 -3 10 -9 18 -14 18 -5 0 -16 3 -25 7 -13 5
-16 2 -12 -13z m340 -319 c23 -29 25 -35 8 -20 -13 11 -37 38 -54 60 -23 29
-25 35 -8 20 13 -11 37 -38 54 -60z"/>
<path d="M12768 3143 c-9 -2 -20 -12 -23 -21 -6 -20 -67 -39 -132 -41 -24 -1
-61 -12 -85 -26 -24 -13 -70 -37 -104 -53 -68 -33 -92 -64 -118 -151 -19 -65
-21 -196 -3 -230 23 -45 37 -46 140 -13 54 18 106 32 116 32 45 0 125 97 140
170 27 126 40 171 59 211 11 24 22 53 25 64 3 11 8 30 12 43 6 22 4 23 -27 15z
m-266 -290 c-16 -21 -40 -47 -53 -58 l-24 -20 20 25 c27 35 78 90 83 90 2 0
-10 -17 -26 -37z"/>
<path d="M2395 2786 c118 -110 327 -223 416 -226 30 -1 59 -1 64 0 6 0 -37 18
-95 39 -128 45 -247 104 -330 162 -101 71 -108 74 -55 25z"/>
<path d="M10391 2790 c-108 -81 -269 -161 -413 -206 -32 -10 -55 -20 -53 -23
3 -2 31 -3 62 -2 90 4 291 113 418 226 63 55 56 58 -14 5z"/>
<path d="M2270 2559 c-113 -10 -351 -61 -472 -101 -54 -17 -96 -34 -93 -36 3
-4 101 17 168 35 24 6 22 -14 -8 -80 -38 -83 -78 -226 -78 -279 1 -26 8 -79
18 -117 17 -71 102 -253 120 -258 6 -2 9 16 7 44 -3 38 10 87 58 233 59 175
62 188 58 260 -5 75 -26 133 -70 189 -10 13 -17 25 -15 27 3 3 293 59 427 82
l55 10 -45 -1 c-25 0 -83 -3 -130 -8z"/>
<path d="M10410 2558 c202 -36 424 -79 427 -82 2 -2 -5 -14 -15 -27 -44 -56
-65 -114 -70 -190 -4 -71 -1 -84 54 -245 44 -131 58 -183 58 -231 1 -37 5 -62
11 -60 18 5 103 187 120 259 26 105 22 157 -23 288 -21 63 -45 129 -52 147 -8
18 -12 35 -9 37 3 3 43 -4 89 -15 117 -28 119 -19 3 19 -141 46 -408 99 -538
105 -92 5 -101 4 -55 -5z"/>
<path d="M3022 2539 c17 -7 69 -7 145 -1 l118 9 -145 1 c-106 0 -138 -2 -118
-9z"/>
<path d="M9633 2538 c76 -6 128 -6 145 1 20 7 -12 9 -118 9 l-145 -1 118 -9z"/>
<path d="M2995 2458 c-32 -23 -88 -58 -123 -77 -59 -32 -89 -64 -108 -111 -3
-8 -11 -29 -19 -46 -10 -23 -12 -63 -8 -150 7 -166 6 -187 -12 -227 -8 -19 -2
-113 8 -124 11 -10 48 29 42 44 -3 9 6 18 24 24 16 6 32 17 35 25 3 8 19 14
35 14 16 0 36 7 45 15 8 8 22 15 30 15 9 0 26 11 38 25 12 14 28 25 35 25 7 0
18 11 23 24 5 13 29 39 55 57 79 57 90 85 90 224 0 133 -19 215 -61 260 -32
35 -62 31 -129 -17z m-5 -295 c-34 -65 -68 -125 -76 -133 -8 -8 8 28 36 80 28
52 61 114 72 137 12 24 24 41 26 38 2 -2 -24 -57 -58 -122z"/>
<path d="M9676 2475 c-42 -45 -61 -127 -61 -260 0 -139 11 -167 90 -224 26
-18 50 -44 55 -57 5 -13 16 -24 23 -24 7 0 23 -11 35 -25 12 -14 29 -25 38
-25 8 0 22 -7 30 -15 9 -8 29 -15 45 -15 16 0 32 -6 35 -14 3 -8 19 -19 35
-25 18 -6 27 -15 24 -24 -6 -15 31 -54 42 -44 10 11 16 105 8 124 -18 40 -19
61 -12 228 3 86 1 128 -8 150 -8 16 -16 37 -19 45 -19 47 -49 79 -108 111 -35
19 -91 54 -123 77 -67 48 -97 52 -129 17z m183 -380 c23 -44 36 -73 27 -65
-16 17 -136 242 -136 256 0 9 33 -48 109 -191z"/>
<path d="M579 2476 c51 -63 239 -165 363 -197 46 -12 84 -23 86 -24 2 -2 -30
-24 -71 -49 -109 -68 -117 -90 -117 -325 0 -153 2 -181 15 -181 8 0 17 11 21
25 3 13 15 27 25 30 10 4 19 11 19 16 0 5 8 9 18 9 11 0 32 7 48 15 44 21 171
146 183 178 18 48 12 147 -12 219 l-23 68 35 6 c146 23 392 94 441 126 12 8
11 8 -4 4 -10 -4 -80 -18 -155 -33 -118 -23 -162 -27 -331 -27 -157 -1 -208 2
-260 17 -67 18 -198 78 -260 118 -27 18 -32 19 -21 5z"/>
<path d="M12187 2464 c-58 -39 -174 -91 -247 -111 -52 -15 -103 -18 -260 -17
-169 0 -213 4 -331 27 -75 15 -145 29 -155 33 -16 4 -16 4 -4 -5 34 -21 290
-100 373 -114 48 -8 91 -17 94 -21 3 -3 -2 -25 -11 -48 -20 -52 -31 -161 -21
-214 12 -64 178 -214 237 -214 10 0 18 -4 18 -9 0 -5 9 -12 19 -16 10 -3 22
-17 25 -30 4 -14 13 -25 21 -25 13 0 15 28 15 181 0 236 -8 257 -118 325 -84
53 -86 49 32 78 81 20 187 71 272 131 84 60 120 103 41 49z"/>
<path d="M5466 2105 c-3 -8 -14 -15 -23 -15 -10 0 -29 -7 -41 -16 -18 -12 -26
-13 -37 -4 -22 18 -120 7 -153 -16 -15 -11 -42 -50 -61 -86 -29 -59 -34 -78
-38 -170 -6 -102 -5 -104 19 -120 48 -32 137 -51 213 -46 92 6 143 31 172 83
20 36 20 41 7 56 -11 13 -13 22 -6 36 6 10 16 47 22 83 7 36 18 72 25 80 7 8
13 41 12 73 l0 59 -28 -6 c-18 -3 -29 -1 -33 9 -7 20 -42 19 -50 0z"/>
<path d="M7284 2105 c-4 -10 -15 -12 -33 -9 l-28 6 0 -59 c-1 -32 5 -65 12
-73 7 -8 18 -44 25 -80 6 -36 16 -73 22 -83 7 -14 5 -23 -6 -36 -13 -15 -13
-20 7 -56 29 -52 80 -77 172 -83 76 -5 165 14 213 46 24 16 25 18 19 120 -4
92 -9 111 -38 170 -19 36 -46 75 -61 86 -33 23 -131 34 -153 16 -11 -9 -19 -8
-37 4 -12 9 -31 16 -41 16 -9 0 -20 7 -23 15 -8 19 -43 20 -50 0z"/>
<path d="M4827 2012 c-12 -11 -36 -14 -104 -13 -48 1 -93 7 -100 13 -9 7 -21
7 -40 0 -16 -6 -41 -13 -56 -17 -23 -5 -27 -9 -22 -27 4 -11 1 -32 -6 -46 -12
-21 -12 -26 -1 -30 7 -2 18 -11 25 -19 7 -8 22 -26 35 -40 17 -18 20 -28 13
-37 -16 -19 13 -107 46 -138 40 -36 66 -48 135 -59 75 -12 209 5 241 31 20 17
22 27 22 122 0 116 -22 182 -75 233 -36 35 -92 48 -113 27z"/>
<path d="M7922 2020 c-45 -10 -85 -51 -114 -114 -19 -42 -23 -68 -23 -154 0
-127 6 -134 124 -151 170 -25 283 22 316 133 10 34 12 53 4 62 -7 9 -4 19 13
37 13 14 28 32 35 40 7 8 18 17 25 19 11 4 11 9 -1 30 -7 14 -10 35 -6 46 5
18 1 22 -22 27 -15 4 -40 11 -56 17 -19 7 -31 7 -40 0 -21 -18 -184 -18 -205
0 -12 11 -27 13 -50 8z"/>
<path d="M5109 1594 c-71 -13 -79 -289 -11 -370 20 -24 73 -54 95 -54 8 0 20
7 27 14 8 11 18 12 36 5 14 -5 46 -9 72 -9 26 0 59 -7 74 -14 19 -10 45 -13
84 -9 55 6 56 6 50 34 -3 16 -2 29 3 29 22 0 20 35 -4 60 -14 14 -25 31 -25
37 0 6 -7 16 -15 23 -12 10 -13 16 -4 26 17 20 5 96 -20 138 -14 23 -41 44
-78 62 -47 24 -69 28 -157 30 -55 1 -113 0 -127 -2z"/>
<path d="M7460 1586 c-70 -18 -116 -52 -139 -100 -23 -45 -28 -105 -11 -122 8
-8 6 -15 -5 -24 -8 -7 -15 -17 -15 -23 0 -6 -11 -23 -25 -37 -24 -25 -26 -60
-4 -60 5 0 6 -13 3 -29 -6 -28 -5 -28 50 -34 39 -4 65 -1 84 9 15 7 48 14 74
14 26 0 58 4 72 9 18 7 28 6 36 -5 16 -18 31 -18 73 2 85 40 122 199 81 345
-15 54 -18 57 -52 63 -59 9 -173 6 -222 -8z"/>
</g>
</svg>
